<svg width="320" height="60" viewBox="0 0 320 60" fill="none" xmlns="http://www.w3.org/2000/svg">
<path d="M2.064 44C2 44 1.968 43.904 1.968 43.712C1.968 43.52 2 43.424 2.064 43.424C3.28 43.424 4.16 43.344 4.704 43.184C5.28 43.024 5.664 42.72 5.856 42.272C6.08 41.792 6.192 41.072 6.192 40.112V17.888C6.192 16.928 6.08 16.224 5.856 15.776C5.664 15.328 5.28 15.024 4.704 14.864C4.16 14.672 3.28 14.576 2.064 14.576C2 14.576 1.968 14.48 1.968 14.288C1.968 14.096 2 14 2.064 14H21.36C21.648 14 21.792 14.144 21.792 14.432L21.888 20.336C21.888 20.432 21.792 20.496 21.6 20.528C21.44 20.528 21.36 20.48 21.36 20.384C21.264 18.688 20.752 17.376 19.824 16.448C18.896 15.488 17.664 15.008 16.128 15.008H13.2C12.08 15.008 11.248 15.104 10.704 15.296C10.16 15.456 9.776 15.744 9.552 16.16C9.36 16.576 9.264 17.232 9.264 18.128V39.92C9.264 40.784 9.36 41.44 9.552 41.888C9.776 42.304 10.144 42.592 10.656 42.752C11.168 42.912 11.968 42.992 13.056 42.992H16.896C18.432 42.992 19.712 42.448 20.736 41.36C21.76 40.272 22.448 38.768 22.8 36.848C22.8 36.784 22.864 36.752 22.992 36.752C23.088 36.752 23.168 36.784 23.232 36.848C23.328 36.88 23.376 36.912 23.376 36.944C23.088 38.96 22.944 41.072 22.944 43.28C22.944 43.536 22.88 43.728 22.752 43.856C22.656 43.952 22.464 44 22.176 44H2.064ZM19.488 32.816C19.488 31.408 19.136 30.4 18.432 29.792C17.76 29.184 16.624 28.88 15.024 28.88H7.824V27.872H15.168C16.704 27.872 17.792 27.616 18.432 27.104C19.104 26.592 19.44 25.728 19.44 24.512C19.44 24.448 19.536 24.416 19.728 24.416C19.92 24.416 20.016 24.448 20.016 24.512L19.968 28.4C19.968 29.328 19.984 30.032 20.016 30.512L20.064 32.816C20.064 32.88 19.968 32.912 19.776 32.912C19.584 32.912 19.488 32.88 19.488 32.816ZM53.2853 44C53.2213 44 53.1893 43.904 53.1893 43.712C53.1893 43.52 53.2213 43.424 53.2853 43.424C54.1493 43.424 54.7733 43.36 55.1573 43.232C55.5413 43.104 55.7333 42.896 55.7333 42.608C55.7333 42.32 55.5893 41.968 55.3013 41.552L39.8453 18.08C39.0133 16.8 38.1813 15.904 37.3493 15.392C36.5493 14.848 35.5893 14.576 34.4693 14.576C34.4053 14.576 34.3733 14.48 34.3733 14.288C34.3733 14.096 34.4053 14 34.4693 14L36.2933 14.048C37.1253 14.112 37.7333 14.144 38.1173 14.144C39.2053 14.144 40.5173 14.112 42.0533 14.048L44.5493 14C44.6453 14 44.6933 14.096 44.6933 14.288C44.6933 14.48 44.6453 14.576 44.5493 14.576C43.7173 14.576 43.0933 14.64 42.6773 14.768C42.2933 14.896 42.1013 15.12 42.1013 15.44C42.1013 15.696 42.2453 16.048 42.5333 16.496L58.0853 40.016C58.9173 41.264 59.7653 42.144 60.6293 42.656C61.5253 43.168 62.6293 43.424 63.9413 43.424C64.0053 43.424 64.0373 43.52 64.0373 43.712C64.0373 43.904 64.0053 44 63.9413 44C63.1093 44 62.4533 43.984 61.9733 43.952L59.3333 43.904L55.6373 43.952C55.0613 43.984 54.2773 44 53.2853 44ZM34.2773 44C34.1813 44 34.1333 43.904 34.1333 43.712C34.1333 43.52 34.1813 43.424 34.2773 43.424C36.4853 43.424 38.6613 41.968 40.8053 39.056L48.0533 29.12L48.6293 29.648L41.8613 39.104C41.1253 40.192 40.7573 41.072 40.7573 41.744C40.7573 42.864 41.7013 43.424 43.5893 43.424C43.6853 43.424 43.7333 43.52 43.7333 43.712C43.7333 43.904 43.6853 44 43.5893 44C42.6293 44 41.8933 43.984 41.3813 43.952L38.0693 43.904L36.0533 43.952C35.7013 43.984 35.1093 44 34.2773 44ZM48.7733 28.4L55.2533 19.232C56.1173 18.016 56.5493 17.024 56.5493 16.256C56.5493 15.136 55.6533 14.576 53.8613 14.576C53.7653 14.576 53.7173 14.48 53.7173 14.288C53.7173 14.096 53.7653 14 53.8613 14L56.0213 14.048C57.2373 14.112 58.3413 14.144 59.3333 14.144C59.9093 14.144 60.5813 14.112 61.3493 14.048L63.1253 14C63.2213 14 63.2693 14.096 63.2693 14.288C63.2693 14.48 63.2213 14.576 63.1253 14.576C62.0693 14.576 60.9653 14.976 59.8133 15.776C58.6613 16.576 57.5093 17.76 56.3573 19.328L49.3973 28.88L48.7733 28.4ZM91.2488 13.472C92.7848 13.472 94.3368 13.616 95.9048 13.904C97.4728 14.192 98.7208 14.608 99.6488 15.152C99.9368 15.28 100.113 15.424 100.177 15.584C100.273 15.712 100.337 15.952 100.369 16.304L100.897 21.68C100.897 21.776 100.817 21.84 100.657 21.872C100.497 21.872 100.401 21.824 100.369 21.728C99.6648 19.264 98.3528 17.456 96.4328 16.304C94.5448 15.12 92.1928 14.528 89.3768 14.528C86.9448 14.528 84.8168 15.072 82.9928 16.16C81.1688 17.216 79.7608 18.72 78.7688 20.672C77.7768 22.624 77.2808 24.88 77.2808 27.44C77.2808 30.416 77.8888 33.168 79.1048 35.696C80.3528 38.224 82.0168 40.224 84.0968 41.696C86.2088 43.168 88.4808 43.904 90.9128 43.904C93.2168 43.904 95.2168 43.28 96.9128 42.032C98.6088 40.752 99.9048 38.8 100.801 36.176C100.801 36.08 100.865 36.032 100.993 36.032C101.089 36.032 101.169 36.048 101.233 36.08C101.329 36.112 101.377 36.16 101.377 36.224L100.705 41.648C100.641 42.032 100.561 42.288 100.465 42.416C100.401 42.512 100.225 42.624 99.9368 42.752C97.0568 43.968 94.0168 44.576 90.8168 44.576C86.9768 44.576 83.7608 43.808 81.1688 42.272C78.6088 40.704 76.7208 38.72 75.5048 36.32C74.2888 33.92 73.6808 31.392 73.6808 28.736C73.6808 25.792 74.4968 23.152 76.1288 20.816C77.7608 18.48 79.9208 16.672 82.6088 15.392C85.2968 14.112 88.1768 13.472 91.2488 13.472ZM122.062 27.104H131.95L132.286 28.112H121.342L122.062 27.104ZM144.67 43.424C144.798 43.424 144.862 43.52 144.862 43.712C144.862 43.904 144.798 44 144.67 44C144.062 44 143.118 43.968 141.838 43.904C140.558 43.84 139.63 43.808 139.054 43.808C138.35 43.808 137.454 43.84 136.366 43.904C135.342 43.968 134.558 44 134.014 44C133.886 44 133.822 43.904 133.822 43.712C133.822 43.52 133.886 43.424 134.014 43.424C135.23 43.424 136.094 43.312 136.606 43.088C137.15 42.864 137.422 42.464 137.422 41.888C137.422 41.408 137.23 40.736 136.846 39.872L126.19 17.36L127.39 15.872L118.078 37.904C117.63 38.992 117.406 39.888 117.406 40.592C117.406 42.48 118.974 43.424 122.11 43.424C122.27 43.424 122.35 43.52 122.35 43.712C122.35 43.904 122.27 44 122.11 44C121.534 44 120.702 43.968 119.614 43.904C118.398 43.84 117.342 43.808 116.446 43.808C115.614 43.808 114.654 43.84 113.566 43.904C112.606 43.968 111.806 44 111.166 44C111.006 44 110.926 43.904 110.926 43.712C110.926 43.52 111.006 43.424 111.166 43.424C112.062 43.424 112.814 43.264 113.422 42.944C114.062 42.592 114.654 42 115.198 41.168C115.774 40.304 116.398 39.072 117.07 37.472L127.198 13.568C127.262 13.472 127.374 13.424 127.534 13.424C127.694 13.424 127.79 13.472 127.822 13.568L139.15 37.424C140.238 39.792 141.166 41.392 141.934 42.224C142.702 43.024 143.614 43.424 144.67 43.424ZM161.381 39.92C161.381 40.848 161.477 41.52 161.669 41.936C161.861 42.352 162.213 42.64 162.725 42.8C163.237 42.928 164.069 42.992 165.221 42.992H170.453C172.277 42.992 173.733 42.432 174.821 41.312C175.909 40.192 176.629 38.64 176.981 36.656C176.981 36.56 177.061 36.528 177.221 36.56C177.413 36.56 177.509 36.608 177.509 36.704C177.221 39.36 177.077 41.552 177.077 43.28C177.077 43.536 177.029 43.728 176.933 43.856C176.837 43.952 176.645 44 176.357 44H154.181C154.117 44 154.085 43.904 154.085 43.712C154.085 43.52 154.117 43.424 154.181 43.424C155.397 43.424 156.277 43.344 156.821 43.184C157.397 43.024 157.781 42.72 157.973 42.272C158.165 41.792 158.261 41.072 158.261 40.112V17.888C158.261 16.928 158.165 16.224 157.973 15.776C157.781 15.328 157.397 15.024 156.821 14.864C156.277 14.672 155.397 14.576 154.181 14.576C154.117 14.576 154.085 14.48 154.085 14.288C154.085 14.096 154.117 14 154.181 14L156.533 14.048C157.877 14.112 158.965 14.144 159.797 14.144C160.693 14.144 161.813 14.112 163.157 14.048L165.461 14C165.557 14 165.605 14.096 165.605 14.288C165.605 14.48 165.557 14.576 165.461 14.576C164.277 14.576 163.397 14.672 162.821 14.864C162.245 15.024 161.861 15.344 161.669 15.824C161.477 16.272 161.381 16.976 161.381 17.936V39.92ZM219.633 27.056C221.489 27.056 223.137 27.408 224.577 28.112C226.017 28.816 227.121 29.792 227.889 31.04C228.689 32.256 229.089 33.632 229.089 35.168C229.089 36.864 228.673 38.4 227.841 39.776C227.009 41.152 225.857 42.24 224.385 43.04C222.945 43.808 221.329 44.192 219.537 44.192C218.481 44.192 217.329 44.144 216.081 44.048C215.633 44.016 215.105 43.984 214.497 43.952C213.889 43.92 213.217 43.904 212.481 43.904L209.217 43.952C208.641 43.984 207.825 44 206.769 44C206.705 44 206.673 43.904 206.673 43.712C206.673 43.52 206.705 43.424 206.769 43.424C207.985 43.424 208.881 43.344 209.457 43.184C210.033 42.992 210.433 42.672 210.657 42.224C210.881 41.776 210.993 41.072 210.993 40.112V17.888C210.993 16.928 210.881 16.224 210.657 15.776C210.465 15.328 210.081 15.024 209.505 14.864C208.929 14.672 208.049 14.576 206.865 14.576C206.769 14.576 206.721 14.48 206.721 14.288C206.721 14.096 206.769 14 206.865 14L209.217 14.048C210.561 14.112 211.649 14.144 212.481 14.144C213.057 14.144 213.585 14.128 214.065 14.096C214.577 14.064 215.009 14.032 215.361 14C216.385 13.904 217.313 13.856 218.145 13.856C220.833 13.856 222.849 14.448 224.193 15.632C225.537 16.784 226.209 18.304 226.209 20.192C226.209 21.984 225.553 23.536 224.241 24.848C222.961 26.128 221.249 27.04 219.105 27.584L219.633 27.056ZM217.089 14.576C216.225 14.576 215.601 14.64 215.217 14.768C214.833 14.896 214.545 15.2 214.353 15.68C214.161 16.16 214.065 16.928 214.065 17.984V27.392L212.529 27.008C213.905 27.104 215.137 27.152 216.225 27.152C218.561 27.152 220.289 26.56 221.409 25.376C222.529 24.16 223.089 22.56 223.089 20.576C223.089 18.784 222.593 17.344 221.601 16.256C220.641 15.136 219.137 14.576 217.089 14.576ZM218.817 43.328C221.153 43.328 222.881 42.736 224.001 41.552C225.153 40.336 225.729 38.608 225.729 36.368C225.729 33.936 225.009 31.968 223.569 30.464C222.161 28.96 220.209 28.192 217.713 28.16C215.889 28.096 214.209 28.176 212.673 28.4L214.065 27.872V40.112C214.065 40.944 214.177 41.584 214.401 42.032C214.657 42.48 215.121 42.816 215.793 43.04C216.497 43.232 217.505 43.328 218.817 43.328ZM266.607 19.28C266.607 16.144 265.215 14.576 262.431 14.576C262.335 14.576 262.287 14.48 262.287 14.288C262.287 14.096 262.335 14 262.431 14L264.495 14.048C265.647 14.112 266.559 14.144 267.231 14.144C267.775 14.144 268.559 14.112 269.583 14.048L271.599 14C271.663 14 271.695 14.096 271.695 14.288C271.695 14.48 271.663 14.576 271.599 14.576C269.039 14.576 267.759 16.144 267.759 19.28V32.912C267.759 36.592 266.735 39.472 264.687 41.552C262.639 43.6 259.887 44.624 256.431 44.624C254.063 44.624 251.983 44.16 250.191 43.232C248.431 42.304 247.055 40.992 246.063 39.296C245.103 37.568 244.623 35.552 244.623 33.248V17.888C244.623 16.928 244.527 16.224 244.335 15.776C244.143 15.328 243.759 15.024 243.183 14.864C242.639 14.672 241.759 14.576 240.543 14.576C240.479 14.576 240.447 14.48 240.447 14.288C240.447 14.096 240.479 14 240.543 14L242.895 14.048C244.239 14.112 245.327 14.144 246.159 14.144C247.023 14.144 248.159 14.112 249.567 14.048L251.775 14C251.871 14 251.919 14.096 251.919 14.288C251.919 14.48 251.871 14.576 251.775 14.576C250.591 14.576 249.711 14.672 249.135 14.864C248.591 15.056 248.223 15.392 248.031 15.872C247.839 16.32 247.743 17.024 247.743 17.984V31.568C247.743 35.344 248.591 38.224 250.287 40.208C251.983 42.192 254.383 43.184 257.487 43.184C260.367 43.184 262.607 42.288 264.207 40.496C265.807 38.672 266.607 36.16 266.607 32.96V19.28ZM306.938 44C306.138 44 304.602 42.592 302.33 39.776C300.09 36.928 297.386 33.024 294.218 28.064L296.906 27.2C299.69 31.328 302.01 34.56 303.866 36.896C305.754 39.2 307.418 40.864 308.858 41.888C310.298 42.912 311.706 43.424 313.082 43.424C313.178 43.424 313.226 43.52 313.226 43.712C313.226 43.904 313.178 44 313.082 44H306.938ZM293.882 13.856C296.474 13.856 298.474 14.384 299.882 15.44C301.29 16.496 301.994 17.968 301.994 19.856C301.994 21.424 301.53 22.896 300.602 24.272C299.674 25.648 298.426 26.752 296.858 27.584C295.322 28.384 293.658 28.784 291.866 28.784C291.258 28.784 290.538 28.752 289.706 28.688V40.112C289.706 41.104 289.802 41.824 289.994 42.272C290.186 42.72 290.554 43.024 291.098 43.184C291.674 43.344 292.57 43.424 293.786 43.424C293.882 43.424 293.93 43.52 293.93 43.712C293.93 43.904 293.882 44 293.786 44C292.794 44 292.01 43.984 291.434 43.952L288.122 43.904L284.858 43.952C284.282 43.984 283.466 44 282.41 44C282.346 44 282.314 43.904 282.314 43.712C282.314 43.52 282.346 43.424 282.41 43.424C283.626 43.424 284.522 43.344 285.098 43.184C285.674 42.992 286.074 42.672 286.298 42.224C286.522 41.776 286.634 41.072 286.634 40.112V17.888C286.634 16.928 286.522 16.224 286.298 15.776C286.106 15.328 285.722 15.024 285.146 14.864C284.602 14.672 283.722 14.576 282.506 14.576C282.41 14.576 282.362 14.48 282.362 14.288C282.362 14.096 282.41 14 282.506 14L284.858 14.048C286.202 14.112 287.29 14.144 288.122 14.144C288.698 14.144 289.242 14.128 289.754 14.096C290.266 14.064 290.714 14.032 291.098 14C292.122 13.904 293.05 13.856 293.882 13.856ZM298.73 21.536C298.73 16.896 296.778 14.576 292.874 14.576C292.01 14.576 291.354 14.656 290.906 14.816C290.49 14.944 290.186 15.248 289.994 15.728C289.802 16.176 289.706 16.928 289.706 17.984V27.488C290.474 27.616 291.418 27.68 292.538 27.68C294.746 27.68 296.33 27.216 297.29 26.288C298.25 25.328 298.73 23.744 298.73 21.536Z" fill="url(#paint0_linear_28_5)"/>
<path d="M190 42.8232V16.1381H186L184 15.2099L186 14.2818H190V8.01657L189.111 6.39227L190 5H192L192.889 6.39227L192 8.01657V14.2818H195.778L198 15.2099L195.778 16.1381H192V42.8232L191.111 47L190 42.8232Z" stroke="url(#paint1_linear_28_5)"/>
<rect y="55" width="317" height="2" fill="url(#paint2_linear_28_5)"/>
<defs>
<linearGradient id="paint0_linear_28_5" x1="0" y1="30" x2="320" y2="30" gradientUnits="userSpaceOnUse">
<stop stop-color="#8F5E25"/>
<stop offset="0.5" stop-color="#FBF4A1"/>
<stop offset="1" stop-color="#8F5E25"/>
</linearGradient>
<linearGradient id="paint1_linear_28_5" x1="191" y1="5" x2="191" y2="47" gradientUnits="userSpaceOnUse">
<stop stop-color="#8F5E25"/>
<stop offset="0.5" stop-color="#FBF4A1"/>
<stop offset="1" stop-color="#8F5E25"/>
</linearGradient>
<linearGradient id="paint2_linear_28_5" x1="0" y1="56" x2="317" y2="56" gradientUnits="userSpaceOnUse">
<stop stop-color="#8F5E25"/>
<stop offset="0.5" stop-color="#FBF4A1"/>
<stop offset="1" stop-color="#8F5E25"/>
</linearGradient>
</defs>
</svg>
