<svg width="320" height="491" viewBox="0 0 320 491" fill="none" xmlns="http://www.w3.org/2000/svg">
<path d="M3.12 472V470.8L6.864 469.984V442.336L3.12 441.52V440.32H24.624V448.096H23.664L21.648 442H9.744V454.816H18.48L19.68 450.832H20.64V460.384H19.68L18.48 456.496H9.744V470.32H22.992L25.008 463.744H25.968V472H3.12ZM36.7838 472V470.8L40.1918 470.032L50.5118 456.016L40.8158 442.336L37.5038 441.52V440.32H48.0638V441.52L44.3198 442.288V442.528L52.5758 454.192L60.9278 442.528V442.336L57.4238 441.52V440.32H66.3038V441.52L63.4238 442.192L53.5358 455.536L63.7598 469.984L67.5038 470.8V472H56.7038V470.8L60.3038 470.128V469.936L51.4718 457.408L42.6398 469.84V470.032L46.4318 470.8V472H36.7838ZM92.3528 472.48C89.3768 472.48 86.7208 471.808 84.3848 470.464C82.0488 469.088 80.2088 467.248 78.8648 464.944C77.5208 462.608 76.8488 459.968 76.8488 457.024C76.8488 454.592 77.2648 452.336 78.0968 450.256C78.9608 448.176 80.1448 446.352 81.6488 444.784C83.1528 443.216 84.8808 442 86.8328 441.136C88.8168 440.272 90.9288 439.84 93.1688 439.84C95.4088 439.84 97.2168 440.08 98.5928 440.56C99.9688 441.04 101.313 441.584 102.625 442.192L102.865 449.632H101.857L99.9368 444.112C98.6888 443.184 97.5048 442.496 96.3848 442.048C95.2968 441.568 94.0968 441.328 92.7848 441.328C90.1608 441.328 87.8568 441.952 85.8728 443.2C83.8888 444.448 82.3208 446.128 81.1688 448.24C80.0488 450.32 79.4888 452.608 79.4888 455.104C79.4888 458.272 80.0808 461.04 81.2648 463.408C82.4488 465.776 84.0648 467.632 86.1128 468.976C88.1608 470.288 90.4648 470.944 93.0248 470.944C94.4968 470.944 95.7608 470.768 96.8168 470.416C97.8728 470.064 98.8648 469.6 99.7928 469.024L102.385 462.976H103.345L102.913 470.128C101.985 470.608 101.041 471.024 100.081 471.376C99.1208 471.728 98.0168 472 96.7688 472.192C95.5528 472.384 94.0808 472.48 92.3528 472.48ZM114.63 472V470.8L117.174 470.224L129.414 440.08H130.422L142.614 470.176L145.494 470.8V472H135.27V470.8L139.35 470.176L135.318 460H123.174L119.286 470.176L123.558 470.8V472H114.63ZM123.846 458.32H134.646L129.174 444.448L123.846 458.32ZM155.957 472V470.8L159.701 469.984V442.336L155.957 441.52V440.32H166.901V441.52L162.581 442.336V470.32H175.589L177.845 461.824H178.805V472H155.957ZM208.821 472V470.8L212.565 469.984V442.336L208.821 441.52V440.32H217.509C219.589 440.32 221.493 440.592 223.221 441.136C224.949 441.648 226.325 442.432 227.349 443.488C228.373 444.512 228.885 445.824 228.885 447.424C228.885 449.152 228.325 450.736 227.205 452.176C226.085 453.616 224.469 454.624 222.357 455.2C225.301 455.584 227.589 456.448 229.221 457.792C230.853 459.104 231.669 460.768 231.669 462.784C231.669 464.544 231.125 466.128 230.037 467.536C228.949 468.912 227.461 470 225.573 470.8C223.717 471.6 221.589 472 219.189 472H208.821ZM217.893 442.048H215.445V454.816H218.181C220.453 454.816 222.309 454.272 223.749 453.184C225.189 452.064 225.909 450.512 225.909 448.528C225.909 446.384 225.205 444.768 223.797 443.68C222.389 442.592 220.421 442.048 217.893 442.048ZM219.717 456.496H215.445V470.368H220.053C221.749 470.368 223.237 470.08 224.517 469.504C225.797 468.896 226.805 468.08 227.541 467.056C228.277 466 228.645 464.8 228.645 463.456C228.645 461.056 227.829 459.296 226.197 458.176C224.597 457.056 222.437 456.496 219.717 456.496ZM257.696 472.48C255.456 472.48 253.44 472.08 251.648 471.28C249.888 470.448 248.496 469.168 247.472 467.44C246.448 465.68 245.936 463.392 245.936 460.576V442.336L242.096 441.52V440.32H252.656V441.52L248.816 442.336V459.904C248.816 462.592 249.2 464.704 249.968 466.24C250.768 467.776 251.904 468.864 253.376 469.504C254.848 470.144 256.576 470.464 258.56 470.464C260.224 470.464 261.744 470.144 263.12 469.504C264.496 468.832 265.584 467.808 266.384 466.432C267.184 465.024 267.584 463.248 267.584 461.104V442.24L262.784 441.52V440.32H273.248V441.52L269.456 442.288V460.576C269.456 463.392 268.944 465.68 267.92 467.44C266.896 469.168 265.488 470.448 263.696 471.28C261.936 472.08 259.936 472.48 257.696 472.48ZM285.263 472V470.8L289.103 469.984V442.336L285.263 441.52V440.32H294.767C298.127 440.32 300.767 441.024 302.687 442.432C304.639 443.808 305.615 445.712 305.615 448.144C305.615 450.064 304.991 451.696 303.743 453.04C302.527 454.384 300.911 455.376 298.895 456.016L308.159 470.176L311.327 470.8V472H305.759L296.159 456.976H291.983V469.936L295.583 470.8V472H285.263ZM295.103 442H291.983V455.296H295.391C297.407 455.296 299.071 454.688 300.383 453.472C301.727 452.224 302.399 450.656 302.399 448.768C302.399 446.688 301.743 445.04 300.431 443.824C299.119 442.608 297.343 442 295.103 442Z" fill="url(#paint0_linear_28_4)"/>
<path d="M192 469.823V443.138H188L186 442.21L188 441.282H192V435.017L191.111 433.392L192 432H194L194.889 433.392L194 435.017V441.282H197.778L200 442.21L197.778 443.138H194V469.823L193.111 474L192 469.823Z" stroke="url(#paint1_linear_28_4)"/>
<rect y="489" width="317" height="2" fill="url(#paint2_linear_28_4)"/>
<g filter="url(#filter0_d_28_4)">
<path d="M185.317 100.291L184.317 111.291L176.817 133.291C176.817 133.291 174.576 141.315 171.817 145.791C169.849 148.984 165.817 153.291 165.817 153.291C165.817 153.291 162.311 157.523 161.317 160.791C160.123 164.714 160.827 167.22 161.317 171.291C161.871 175.899 164.317 182.791 164.317 182.791C164.317 182.791 165.452 191.922 165.317 197.791C165.149 205.079 162.817 216.291 162.817 216.291C162.817 216.291 159.031 233.586 154.317 243.791C150.497 252.06 142.317 263.791 142.317 263.791L139.317 270.291C139.317 270.291 137.926 277.998 139.817 282.291C140.559 283.977 142.317 286.291 142.317 286.291L153.317 309.291L154.317 315.791V359.791C154.317 359.791 154.843 361.951 155.317 363.291C155.791 364.631 156.152 365.461 156.817 366.791C157.317 367.791 156.317 373.291 157.317 379.291C158.317 385.291 167.817 405.791 167.817 405.791C165.817 414.291 142.317 411.291 144.317 403.791C146.317 396.291 145.817 374.291 145.817 374.291C145.817 374.291 144.293 370.634 143.317 368.291M185.317 100.291C185.317 100.291 184.153 93.9314 182.317 90.2909C181.049 87.7764 179.317 84.2909 178.317 84.2909C177.317 84.2909 176.398 86.8662 175.817 88.7909C175.027 91.408 175.817 95.7909 175.817 95.7909C175.817 95.7909 177.417 99.9761 177.817 102.791C178.229 105.691 178.828 107.542 177.817 110.291C176.859 112.895 175.651 114.289 173.317 115.791C170.321 117.719 167.858 117.688 164.317 117.291C160.749 116.891 158.679 115.957 155.817 113.791C154.276 112.624 152.317 110.291 152.317 110.291M185.317 100.291L188.317 118.791C188.317 118.791 193.941 138.983 200.817 150.291C202.945 153.791 221.5 174.5 221.5 174.5M143.317 368.291C144.317 363.291 144.317 358.791 143.817 355.791C143.317 352.791 134.817 337.291 126.817 325.791M143.317 368.291C132.317 353.291 126.817 325.791 126.817 325.791M126.817 325.791L123.817 314.291L122.817 301.791L120.817 294.791L116.817 285.291L115.317 277.791L115.817 270.291M115.817 270.291L122.817 237.291L129.817 215.791C129.817 215.791 130.502 212.135 130.317 209.791C130.127 207.383 128.817 203.791 128.817 203.791M115.817 270.291C115.817 270.291 103.768 245.511 96.8169 229.291C92.3169 218.791 90.3169 205.291 90.3169 205.291C90.3169 205.291 88.8598 190.642 91.3169 181.791C93.9602 172.269 103.817 159.791 103.817 159.791L111.817 150.291M128.817 203.791C128.817 203.791 137.817 192.291 139.817 192.291C141.198 192.291 142.317 194.791 142.317 194.791M128.817 203.791C128.817 203.791 124.751 199.595 121.817 197.291C119.049 195.116 114.317 192.291 114.317 192.291M111.817 150.291C111.817 150.291 91.3169 134.291 89.3169 132.291C87.3169 130.291 86.8169 126.791 86.8169 126.791C86.8169 126.791 89.2077 117.849 87.3169 112.291C85.6178 107.296 80.5293 106.462 79.3169 101.291C78.6038 98.2492 79.3169 93.2909 79.3169 93.2909C79.3169 93.2909 82.8929 83.5345 86.8169 78.2909C89.9605 74.0902 96.3169 68.7909 96.3169 68.7909M111.817 150.291C111.817 150.291 119.769 143.054 120.817 137.291C121.817 131.791 121.817 124.291 121.817 124.291C121.817 124.291 115.452 122.241 114.317 118.791C113.707 116.936 114.045 115.724 114.317 113.791C114.853 109.982 118.317 104.791 118.317 104.791L96.3169 68.7909M96.3169 68.7909C96.3169 68.7909 85.8169 49.8047 85.8169 46.2909C85.8169 44.2909 98.8169 29.7909 101.817 25.2909C102.605 24.1081 105.317 26.2909 105.317 26.2909L118.317 15.7909L125.317 14.2909C125.317 14.2909 128.121 11.277 132 8.32376C135.344 5.77774 139.486 3.27678 143.317 2.79089C146.809 2.34799 149.63 1.01708 152.317 3.29089C158.817 8.79083 169.975 19.7908 171.817 23.2908C174.317 28.0409 173.692 33.9157 174.317 40.7909C175.317 51.7908 178.317 55.7909 178.317 55.7909M178.317 55.7909C178.317 55.7909 172.817 56.7909 166.317 69.2909C165.43 70.9971 161.817 67.2909 161.817 67.2909M178.317 55.7909C178.317 55.7909 182.371 55.4287 184.317 56.7909C189.317 60.2908 193.817 71.7909 193.817 71.7909C193.817 71.7909 199.817 92.2908 200.817 102.791C202.103 116.291 202.817 120.791 207.817 137.291C211.304 148.8 223.317 163 223.317 163M161.817 67.2909L158.317 55.7909M161.817 67.2909L166.817 56.7909L167.317 42.7909L162.817 33.7909L161.317 20.2909M223.317 163L225.317 151.291C225.317 151.291 224.222 148.838 223.5 146.5C221.248 139.209 233.5 128 233.5 128C233.5 128 239.839 140.462 236.317 148.291C235.227 150.713 232.317 153.791 232.317 153.791L229.817 168.291M223.317 163L221.5 174.5M229.817 168.291C229.817 168.291 237.317 172.791 235.817 180.291C234.245 188.151 226.817 186.791 226.817 186.791M229.817 168.291L226.817 186.791M226.817 186.791C226.817 186.791 222.647 210.617 223.317 212.291C224.317 214.791 240.317 216.291 240.317 216.291C239.998 222.035 239.819 225.256 239.5 231C239.5 231 238.653 227.316 236.5 225.5C233.526 222.992 226.817 222.291 226.817 222.291L203.817 380.791L191.817 400.791L183.317 376.791L207 219.5C207 219.5 200.814 219.132 198.5 219.5C194.701 220.104 191.817 222.291 191.817 222.291V209.791C191.817 209.791 212.442 213.291 214.317 210.791C215.817 208.791 221.5 174.5 221.5 174.5M192.817 390.791L216.317 222.291M161.317 47.7908C161.317 47.7908 161.168 41.5014 159.817 37.7908C157.17 30.5209 150.713 29.6571 146.317 23.2908C144.376 20.4803 141.817 15.7909 141.817 15.7909M131.317 29.7908C131.317 29.7908 137.5 30.5 139.5 31.5C140.735 32.1175 140.317 34.7908 140.317 34.7908C140.351 30.9997 134.317 30.7908 133.317 31.7908C132.317 32.7908 131.403 33.2524 130.817 35.7908C130.817 35.7908 131.428 51.0815 133.317 53C135 54.7092 138.573 53.9488 141.817 55.7909C144.341 57.2242 144.18 57.7423 144.817 60.2908C145.317 62.2908 145.747 66.6515 144.317 70.2908C142.65 74.5335 140.407 76.7774 136.317 78.7908C132.774 80.535 130.261 80.4942 126.317 80.2908C124.317 80.1877 103.123 54.4033 102.317 52.7908C101.817 51.7908 102.817 47.6922 103.317 46.7908C103.817 45.8895 107.817 42.7909 107.817 42.7909L125.317 23.2908" stroke="url(#paint3_linear_28_4)" stroke-width="3" shape-rendering="crispEdges"/>
</g>
<defs>
<filter id="filter0_d_28_4" x="73.4999" y="0.500244" width="172.395" height="419.934" filterUnits="userSpaceOnUse" color-interpolation-filters="sRGB">
<feFlood flood-opacity="0" result="BackgroundImageFix"/>
<feColorMatrix in="SourceAlpha" type="matrix" values="0 0 0 0 0 0 0 0 0 0 0 0 0 0 0 0 0 0 127 0" result="hardAlpha"/>
<feOffset dy="4"/>
<feGaussianBlur stdDeviation="2"/>
<feComposite in2="hardAlpha" operator="out"/>
<feColorMatrix type="matrix" values="0 0 0 0 0 0 0 0 0 0 0 0 0 0 0 0 0 0 0.25 0"/>
<feBlend mode="normal" in2="BackgroundImageFix" result="effect1_dropShadow_28_4"/>
<feBlend mode="normal" in="SourceGraphic" in2="effect1_dropShadow_28_4" result="shape"/>
</filter>
<linearGradient id="paint0_linear_28_4" x1="0" y1="451" x2="320" y2="451" gradientUnits="userSpaceOnUse">
<stop stop-color="#8F5E25"/>
<stop offset="0.5" stop-color="#FBF4A1"/>
<stop offset="1" stop-color="#8F5E25"/>
</linearGradient>
<linearGradient id="paint1_linear_28_4" x1="193" y1="432" x2="193" y2="474" gradientUnits="userSpaceOnUse">
<stop stop-color="#8F5E25"/>
<stop offset="0.5" stop-color="#FBF4A1"/>
<stop offset="1" stop-color="#8F5E25"/>
</linearGradient>
<linearGradient id="paint2_linear_28_4" x1="0" y1="490" x2="317" y2="490" gradientUnits="userSpaceOnUse">
<stop stop-color="#8F5E25"/>
<stop offset="0.5" stop-color="#FBF4A1"/>
<stop offset="1" stop-color="#8F5E25"/>
</linearGradient>
<linearGradient id="paint3_linear_28_4" x1="159.658" y1="2" x2="159.658" y2="410.934" gradientUnits="userSpaceOnUse">
<stop stop-color="#8F5E25"/>
<stop offset="0.5" stop-color="#FBF4A1"/>
<stop offset="1" stop-color="#8F5E25"/>
</linearGradient>
</defs>
</svg>
